<?xml version="1.0" encoding="UTF-8"?><svg id="Ebene_1" xmlns="http://www.w3.org/2000/svg" xmlns:xlink="http://www.w3.org/1999/xlink" viewBox="0 0 800 480"><defs><style>.cls-1,.cls-2{fill:#fff;}.cls-3{fill:#00b140;}.cls-4{fill:#c8102e;}.cls-4,.cls-5,.cls-2,.cls-6{stroke:#000;}.cls-4,.cls-2,.cls-6{stroke-width:1.16px;}.cls-7{fill:url(#Unbenannter_Verlauf_12);stroke:url(#Unbenannter_Verlauf_5);stroke-miterlimit:10;}.cls-5{stroke-linejoin:round;stroke-width:1.69px;}.cls-6{fill:none;}</style><linearGradient id="Unbenannter_Verlauf_12" x1="239.28" y1="59.01" x2="348.7" y2="59.01" gradientUnits="userSpaceOnUse"><stop offset="0" stop-color="#48484a"/><stop offset=".23" stop-color="#2e3237"/><stop offset=".49" stop-color="#1a2229"/><stop offset=".74" stop-color="#0e1820"/><stop offset="1" stop-color="#0b151e"/></linearGradient><linearGradient id="Unbenannter_Verlauf_5" x1="238.35" y1="59.11" x2="349.63" y2="59.11" gradientUnits="userSpaceOnUse"><stop offset="0" stop-color="#48484a"/><stop offset=".23" stop-color="#2e3237"/><stop offset=".49" stop-color="#1a2229"/><stop offset=".74" stop-color="#0e1820"/><stop offset="1" stop-color="#0b151e"/></linearGradient></defs><path class="cls-3" d="M0,0h800v480H0V0Z"/><path class="cls-1" d="M0,0h800v240H0V0Z"/><path class="cls-4" d="M246.66,113.82c-25.98,3.94-91.82,10.12-117.51,5.91l5.02,12.09c42.51-3.94,83.26,9.84,121.05-4.5,0,0-8.56-13.5-8.56-13.5Z"/><path class="cls-4" d="M145.99,143.34c-16.24-4.78-43.11-32.62-47.54-49.49,12.69,8.72,43.1,19.96,54.03,18.84-3.54,2.53-12.4,9.28-19.19,10.12,3.25,6.19,9.45,14.06,12.7,20.53Z"/><path class="cls-4" d="M198.24,134.91c4.73,6.47,29.53,3.8,42.07-4.08l-3.4-5.49-2.51,4.64-3.99-4.36-1.03,6.89-6.94-5.06-1.18,6.05-4.43-5.34-1.62,6.61-6.5-5.06-2.51,6.89c-1.96-2.32-3.06-5.26-3.1-8.3-2.51.98-4.58,4.22-4.87,6.61h0ZM200.31,113.96c0,1.69,2.07,6.61,5.91,8.01.15-2.11-2.51-7.03-.89-9.14l3.4,3.09,1.03-5.91,4.58,3.23.44-6.89,4.72,3.09v-7.59c-7.68.7-17.12,9.56-19.19,12.09h0Z"/><path class="cls-7" d="M348.7,72.67h-.14s-10.38,19.98-10.38,19.98l-1.21,8.16-3.53-1.76,4.6-6.46,6.22-19.43-19.57,2.15-.38.04c-7.32-12.27-18.88-22.59-33.52-28.64-.82-.34-1.67-.63-2.52-.96,14.24,6.67,25.32,17.47,32,30.05.75,1.41,1.45,2.84,2.08,4.29l-2.11,5.13-.07.14-7.98,10.16c-7.3-12.3-34.75-8.51-31.7-24.09.71-3.64-2.73-1.08-4.11-1.56-9.86-3.4-21-2.51-30.85-1.14l9.13-22.13-15.39-19.12,68.29-10.3,41.13,55.47Z"/><path class="cls-4" d="M679.42,190.59c-1.99-4.5-8.19-9.98-13.65-13.36,2.99-7,5.91-14.02,8.78-21.07-8.27,1.69-25.46,2.94-35.5,1.81,18.9-18,58.46-55.12,71.45-71.99-4.72,23.06-1.18,74.8,8.27,92.8-10.04-3.94-21.64-12.09-28.14-21.09-3.83,12.92-8.53,27-11.13,32.76"/><path class="cls-4" d="M310.73,91.88c1.18,5.91,1.47,10.4,5.9,12.09,4.43,1.69,14.17,5.06,20.37,15.19-7.38-1.97-17.71-4.78-18.6,1.97-.84,6.42,2.12,6.23,7.09,7.31,6.49,1.41,12.7,9,12.99,19.12-5.32-3.09-12.7-5.62-17.42-5.62s-6.05.84-7.23,6.47c-1.95,9.28,1.62,9.84,6.05,10.4,4.43.56,13.88,4.78,14.47,20.25-5.02-4.22-15.09-6.57-21.26-7.59-3.39-.56-3.98,1.12-4.43,7.03-.45,5.9.29,7.87,6.2,9.56,5.91,1.69,12.7,5.91,14.47,14.9-5.61-2.53-14.47-1.69-17.12-.56-2.66,1.12-4.1,7.41,1.51,19.5,12.07-3.89,24.53-6.47,37.16-7.69,27.91-2.8,21.26-21.37,21.26-50.62s61.41-61.87,154.71-113.61c-22.44,54.56,8.27,49.49,25.39,43.31,17.12-6.19,57.28-21.93,88.58-34.87-43.11,27.56-64.96,56.8-27.16,69.74-48.42,14.62-70.86,54.56-44.29,79.87-18.12-6.11-43.23,5.42-53.75,21.48,18.9-1.69,55.52,2.7,77.96,8.89,21.37,5.89,56.64-1.01,59.96-19.16.17-.91.27-1.84.27-2.78,0-6.33-1.63-11.1-4.12-14.59-5.49-7.66-15.1-9.32-20.38-9.32-7.68,0-15.65,3.09-15.65,8.44s4.72,7.59,14.17,7.59c5.16,0,13.13.86,21.86-6.71,2.49,3.48,4.12,8.26,4.12,14.58,0,.92-.1,1.84-.28,2.74-8.26,4.46-17.5,6.8-26.89,6.82-18.9,0-36.61-7.31-36.61-27s21.26-30.93,38.38-30.93c23.62,0,56.69,9,56.69,44.99,0,45.56-62.71,66.86-99.92,66.86,6.24,4.98,13.26,9.63,20.79,12.44,26.35,9.84,49.6,21.93,57.87,40.5-10.04,0-26.57-7.87-34.25-15.75,21.26,24.75-4.53,70.27-1.77,85.49,2.95,16.31,23.03,6.18,23.03,18.84,0,11.25-11.81,9.28-16.24,4.22-4.43-5.06-18.63-9.31-25.98-4.22-6.49,4.5-16.53,6.75-20.96,2.25-4.43-4.5-20.67-2.81-27.46,3.37-6.79,6.18-16.28,6.67-19.19,1.97-3.12-5.03-2.32-11.15,10.31-13.27-5.61-5.63-22.71,3.99-25.66-6.7-2.12-7.68,2.36-11.25,17.12-10.13-1.48-3.65-12.4-5.34-10.92-12.93,1.48-7.59,10.01-12.29,20.08-1.12,26.87,29.81,39.27,13.22,48.42.28-2.95-6.75.3-11.25,5.91-15.47-2.95-4.78-1.18-11.53.88-16.03-4.43-2.53-7.08-13.78-2.36-17.72-3.84,0-9.74-4.22-9.74-11.53-5.27,3.2-12.02,2.51-16.53-1.69-5.61,3.09-20.37,3.65-26.87-3.1-8.86,3.38-24.51,2.53-28.64-3.94-7.79,1.97-22.14-4.5-25.1-11.53-4.55-.33-8.98-1.67-12.95-3.93-11.81,8.44-27.8,24.74-11.86,37.12,15.95,12.37,49.01,2.25,49.6,33.18-7.68-6.18-21.85-4.5-26.57-10.68-15.94,22.5-38.97,43.02-72.92,51.46,5.02,3.09,14.17,3.38,17.71,3.09,7.36-.58,13.58,5.34,7.97,12.37-5.61,7.03-17.12,1.12-23.92-4.78-9.77-8.5-16.24-3.66-18.9-1.69-2.66,1.97-6.2,3.1-10.92-1.41-4.72-4.5-9.15-1.4-11.51,1.41-3.84,4.57-12.7-5.91-26.87,6.47-6.81,5.95-23.03-1.69-16.54-10.4-6.79,1.69-18.8-7.71-8.86-16.87,9.15-8.44,26.57,10.97,40.74,5.34-3.18-3.86-9.82-11.01-23.62-12.65-7.09-.84-8.34-8.7-5.02-14.34,4.13-7.03,16.83-2.25,25.39,8.72,6.74,8.64,15.65,8.72,24.8,7.03,6.43-4.08,16.39-4.22,20.82-2.81,0-4.22,6.94-7.87,12.25-7.87-.29-5.62,1.48-10.68,10.04-12.09.71-.12,1.45-.23,2.21-.3-5.96.27-11.75-2.1-15.8-6.48-11.83,2.89-24.93-2.68-26.86-13.31-18.69-1.3-20.55-20.17-15.95-26.31.38-.51.8-.98,1.26-1.41-5.57,4.18-12.67,6.12-21.47,3.07-8.27,11.24-22.65,16.14-36.06,12.29-3.72,5.62-9.38,9.66-15.9,11.36.55,6.82-.92,14.54-9.92,23.61,2.36-12.37-14.17-16.31-10.63-36.56-1.18,14.62-45.76,38.81-52.85,70.86,6.5,2.81,13.58,4.78,18.01,3.94,11.14-2.12,14.76,9,11.51,13.5s-12.4,6.75-16.24,2.81c-3.84-3.93-11.81,1.41-15.65-5.9-3.84-7.31-14.47-4.78-18.9,0-4.43,4.78-19.19-6.19-29.82,4.78-3.98,4.1-17.42,8.44-25.39,6.19-7.97-2.25-12.7-10.12-10.04-14.34-5.31-4.78-5.39-10.64-.29-15.75-1.92-7.17,4.34-21.34,14.91-15.75,6.64,3.51,30.19,20.11,50.71,1.12,17.79-16.66,7.43-30.02,18.82-31.78-1.39-6.77,2.95-15.18,7.68-16.87-1.37-2.81-1.62-6.03-.7-9.01-2.68-.21-5.32-.79-7.85-1.72-8.85,2.51-17.99,3.85-27.18,3.99,0,6.75-8.27,23.06-15.35,30.93-2.36-61.87-61.41-68.05-69.38-117.26-.29,7.31-8.27,14.62-9.15,20.81-.89,6.19-4.72,10.97-11.81,8.16-7.08-2.81-8.86-14.62-1.77-16.31,7.09-1.69,5.76-12.94,10.19-14.34s5.17-5.91,3.39-11.53c-1.77-5.62.88-12.37,2.66-16.59,1.77-4.22-.89-11.25-7.09-13.78-6.2-2.53-8.26-8.72-5.9-14.06-6.5-4.5-4.64-14.22,4.13-16.03,10.93-2.25,10.63,14.9,16.83,16.87-.89-3.38.29-9.84,2.95-14.06-3.54-7.31.89-13.22,7.97-13.22,12.4,0,8.27,19.68,5.32,25.87,4.13-5.63,10.63-12.09,15.65-7.59,5.02,4.5,4.2,13.89-1.18,17.99-4.43,3.37-13.58,8.72-10.93,14.62,5.31,9,8.56,19.68,9.15,33.46,7.38,5.34,12.1,11.53,12.1,16.59,4.87.28,14.2,4.13,15.5,9.56,5.9-.57,14.72.56,17.27,5.76,1.92-.98,7.04-1.31,10.15-1.03.01-4.39,1.54-8.65,4.32-12.04-10.04-10.69-9.74-27.56.59-34.31-2.94-7.01-1.77-19.97,7.97-26.72-.21-7.03,1.77-16.31,11.51-22.21-1.48-7.59,3.54-18,9.74-18.56-1.48-7.31-.36-16.34,8.2-20.56-2.02-2.12-3.06-4.97-2.9-7.89-15.02,3.09-20.89,11.85-25.68,20.01-.59-3.38-1.48-7.87-3.54-11.25,0,8.72-6.79,11.81-7.08,23.9-5.02-5.06-6.79-13.22-6.5-18.84.24-4.5-7.68-8.72-5.31-16.59,11.81,10.4,35.73-12.37,56.39-5.06-20.37-40.78-35.13-21.09-45.47-14.06-10.33,7.03-17.71-3.38-16.53-10.12-13.88-3.09-30.41-2.53-48.42.84,13.29-16.59,44.58-23.9,67.61-22.22,10.04-17.72,22.15-15.18,33.95-13.5,3.94.56,44.83-6.42,43.39-2.84,8.54-2.43,38-11.72,40.46-16.84,1.48,4.78-.88,17.72-4.13,21.65,3.37-.9,6.85-1.28,10.33-1.12-10.33,5.62-23.32,14.06-25.39,15.47-2.07,1.41-3.25,4.22,2.07,7.03-5.91,1.12-22.44,6.75-29.23,2.25"/><path class="cls-4" d="M86.35,167.95c7.82-5.34,18.52-1.39,20.82,6.47,1.48,5.06-7.49,8.82-8.27,4.08-1.03-6.33-5.31-10.26-12.55-10.55h0ZM117.03,151.6c9.11-2.98,18.16,3.72,18,11.88-.11,5.25-9.83,6.4-9.15,1.65.91-6.35-2-11.29-8.85-13.53ZM150.89,166c8.68,3.96,10.2,14.79,4.07,20.49-3.95,3.67-11.72-2.01-7.73-4.94,5.32-3.91,6.88-9.38,3.66-15.55h0ZM81.73,279.66c7.58,5.65,18.44,2.14,21.08-5.62,1.7-5-7.09-9.11-8.08-4.41-1.31,6.28-5.77,10.04-13.01,10.03ZM135.06,393.38c3.17-8.66,14.31-11.29,20.93-6.11,4.26,3.33-.8,11.32-4.3,7.87-4.67-4.61-10.55-5.48-16.63-1.75h0ZM125.1,416.66c.53-9.15,13.41-14.91,21.28-11.69,5.07,2.08,2.53,11.09-1.84,8.69-5.82-3.19-14.68-2.2-19.44,3ZM139.1,438.27c-3.3-8.61,3.56-17.37,12.13-17.36,5.52,0,6.91,9.24,1.9,8.68-6.68-.75-11.81,2.12-14.03,8.68ZM277.96,430.58c1.14-9.11-7.65-16.13-15.99-14.25-5.37,1.21-4.5,10.51.24,8.86,6.32-2.19,12.01-.52,15.75,5.38h0ZM331.23,433.48c-1.98-8.97,6.13-16.7,14.61-15.53,5.46.75,5.45,10.08.58,8.85-6.49-1.65-12,.49-15.19,6.68ZM464.06,431.29c.74-9.14-8.36-15.81-16.6-13.6-5.31,1.42-4.03,10.68.63,8.85,6.22-2.44,11.97-1,15.98,4.75h0ZM315.46,414.44c-1.41-9.07,8.04-16.88,16.42-15.22,5.4,1.07,3.94,10.93-.84,9.42-6.38-2.02-12.02-.19-15.58,5.81h0ZM327.82,388.35c.53-9.15,11.43-14.99,19.3-11.77,5.07,2.08,1.55,11.46-2.81,9.06-5.83-3.2-11.73-2.48-16.49,2.71h0ZM531.11,438.26c-1.98-8.98,6.13-16.71,14.61-15.53,5.46.76,5.45,10.09.58,8.85-6.49-1.65-12,.49-15.19,6.68h0ZM663.04,433.97c2.04-8.96-6.01-16.75-14.5-15.63-5.46.72-5.53,10.05-.65,8.84,6.51-1.61,12,.57,15.14,6.79h0ZM514.12,417.46c-1.39-9.07,7.21-16.31,15.59-14.64,5.4,1.08,4.78,10.39,0,8.87-6.38-2.03-12.01-.22-15.6,5.77h0ZM519.03,392.7c.18-9.17,9.9-14.98,17.88-12.03,5.14,1.9,2.95,10.99-1.51,8.75-5.94-2.99-11.82-2.08-16.38,3.28h0Z"/><path class="cls-6" d="M552.24,93.29c-22.44,7.31-109.24,39.93-125.18,44.99s-24.21,6.19-33.66,27"/><path class="cls-6" d="M510.32,69.1c-56.69,34.87-102.74,65.24-115.74,93.93-12.99,28.68-12.11,46.12-43.7,51.18M259.95,268.2c14.17-15.75,43.7-34.87,72.04-35.99-5.53,8.55-10.27,17.59-14.17,27"/><path class="cls-6" d="M317.23,269.89c7.09-9,24.8-28.12,36.02-35.99-5.31,15.19-14.17,51.18-9.45,75.93,2.95-23.62,15.94-60.18,29.52-80.99,10.04,23.06,23.62,55.68,23.62,76.49,2.95-24.75-2.95-67.49-11.81-86.05,24.21,11.81,54.33,45.55,67.32,66.37-8.86-29.25-38.97-64.68-54.92-75.93,39.56,6.75,96.84,30.94,118.1,48.93-34.84-30.93-77.36-55.12-107.47-66.37,47.24-3.93,135.81,6.19,161.2,15.75-37.2-20.25-113.96-30.93-160.02-28.12,48.42-19.69,134.63-42.18,204.31-51.74-53.14,2.81-121.64,16.31-191.91,31.49,31.3-20.25,128.14-58.49,151.17-65.24M274.12,79.79c4.22-13.27,21.42-16.79,35.41-20.78M297.45,89.63c-11.81-.85-13.91-4.84-7.38-9.28,4.13-2.81,12.69-7.31,18.6-7.88-1.48-.28-5.61-1.41-7.68-1.69,6.2-2.53,16.53-6.19,20.08-9.56"/><path class="cls-6" d="M283.72,68.26c-4.52.39-9.26.75-14.02.98M253.16,134.35c-2.88.14-5.75.51-8.57,1.08M205.14,277.71c-.11,8.09,2.8,15.93,8.16,21.98,4.73,5.06,33.66,6.75,34.84-2.81M209.46,265.67c10.04,10.69,42.51,4.22,42.51-3.65M210.05,231.36c3.54,8.44,41.33,16.03,41.92,6.19M218.02,204.65c.3,9.84,34.71,16.24,35.73,9M229.54,182.43c1.48,7.59,24.21,14.9,27.46,11.53M239.28,163.87c1.08,5.33,17.42,10.12,23.03,8.15M247.48,143.32c3.35,3.87,9.85,7.48,21.03,9.31M190.86,103.41c.29-5.91,6.2-6.75,5.31-12.65M252.86,127.6c2.07,3.09,7.38,9.56,7.97,14.34,2.95-2.25,5.32-7.03,6.2-9.28,2.82,2.34,4.88,5.48,5.9,9,1.18-3.38,3.25-9.28,3.54-12.94,4.23.94,8.17,2.86,11.51,5.62.59-3.65-1.18-8.44-4.13-10.4,3.26.14,6.51-.54,9.45-1.97-2.07-2.81-5.31-6.47-8.56-8.15,2.95-.84,7.08-4.22,8.86-5.62-2.66-1.12-7.38-3.66-10.33-5.06,1.77-1.69,3.25-5.06,4.13-7.59M203.85,81.9c-1.92,0-2.8,4.22.74,6.89,2.55,1.92,2.51,9.84-2.07,11.81"/><path class="cls-6" d="M272.94,141.66c-12.99,28.68-24.95,83.1-20.82,122.47M266.15,317.98c0,5.91,9.74,7.03,9.45-7.03"/><path class="cls-6" d="M274.71,317.98c1.18,5.06,11.22,6.19,9.15-8.72"/><path class="cls-6" d="M270.58,321.91c.59,10.97,7.97,10.4,8.56,0M284.16,314.32c2.95,6.75,11.22,3.37,8.86-11.53"/><path class="cls-6" d="M293.31,309.26c3.25,5.63,10.92,1.13,11.81-8.72M254.93,278.05c-5.07,5.28-10.88,17.15-3.84,28.4,4.14,6.61,15.5,10.27,16.68,6.33M251.09,306.45c-4.57.7-11.31,10.05-7.97,18.98,2.36,6.33,15.94,10.13,18.01,5.49M389.86,314.32c14.76,1.69,34.25-7.87,35.43-27"/><path class="cls-6" d="M423.52,296.32c8.27,5.06,25.39,6.75,32.48-6.19M431.19,300.26c-7.68,16.87-14.63,34.8,1.18,47.81,12.99,10.69,22.64-5.24,38.38,10.69,4.72,4.78-.89,13.78-48.42,39.93M194.99,278.75c3.1,6.33,2.8,18.7-3.1,17.01M148.35,418.65c10.04-14.62,21.89-2.81,30.41-5.34"/><path class="cls-2" d="M226.74,84.43c-1.77,4.08,2.94,9.78,7.38,10.27,5.17.56,12.55-2.67,10.93-7.87"/><path class="cls-6" d="M221.57,84.85c2.66-3.52,33.66,7.59,46.06-.28M121.18,189.74c-1.18,2.53-.74,9.98,3.84,14.06M340.26,416.4c2.36-2.81,11.11-5.65,17.57-4.08,6.35,1.55,17.71-.56,25.1-3.38"/><path class="cls-6" d="M272.94,141.66c-2.95,27.56,3.69,69.88,20.67,88.72M264.02,166.12c.49,24.52,6.79,53.64,19.25,69.66M257.2,192.85c2.45,18.56,7.98,37.22,16.71,49.34M252.92,221.02c2.95,11.01,7.1,21.12,12.49,28.72M251.4,247.67c1.66,3.54,3.63,6.94,5.88,10.14"/><path class="cls-6" d="M272.35,158.81c-.89,8.72-6.49,15.47-11.52,19.4M272.94,170.9c-.89,8.72-7.08,16.59-15.2,20.39M274.71,182.99c-.89,8.72-9.74,19.4-19.78,24.18M277.07,195.09c-.88,8.72-12.4,21.93-24.12,26.18M280.77,207.18c-3.4,11.81-16.98,25.59-28.93,28.68M286.08,219.27c-.89,8.72-19.04,26.43-34.69,31.49"/><path class="cls-6" d="M177.72,272.98c1.92,8.01-4.43,15.33-7.68,13.36"/><path class="cls-6" d="M211.53,300.82c-30.71-6.19-53.54-16.5-66.14-40.5-3.25-6.19,5.31-7.87,4.72-13.5M140.96,213.37c-5.31-9-6.5-18.84-3.54-25.03"/><path class="cls-6" d="M162.22,263.42c0,5.06-6.35,11.53-8.56,9.14M213.3,299.7c-3.54,8.19,3.3,23.82,18.32,29.2M243.12,325.43c-1.77,1.26-3.06,3.09-3.65,5.19M255.23,342.16c-2.66,4.22-12.99,1.13-15.06-2.53M213.67,388.28c-12.52,11.72-25.27,12.38-40.52,14.06-15.35,1.69-19.63-4.92-25.1.56M313.68,300.26c1.77,7.87,1.18,15.75-5.9,27.56-3.91,6.52-.21,13.55.47,21.94M381.67,323.04c6.77-5.09,11.23-13.48,13.5-19.96M360.2,326.11c7.7-10.03,8.9-23.62,3.08-34.85M324.14,338.4c4.54-6.67,7.25-16.18,7.25-28.58M232.49,356.5c1.18,5.77,10.34,8.3,11.81,5.48"/><path class="cls-6" d="M305.71,288.73c0,5.62-5.9,9.84-10.33,6.47.59,8.15-5.61,10.69-10.04,6.75.89,11.53-9.15,12.65-15.65,3.65-7.38,34.59-32.18,60.46-33.95,77.33-.59,3.94-16.39,2.81-12.25-8.72M412.89,320.51c-8.86-1.05-24.44-3.65-31.22,2.53M416.43,346.94c-8.19,3.09-14.8,4.18-20.07,3.81M439.02,370.55c8.16-.3,16.57-5.47,19.93-18.26M423.21,364.07c6.85-1.63,12.66-6.12,15.95-12.34"/><path class="cls-6" d="M463.37,373.38c-5.14-1.55-15.99-3.59-24.36-2.83M434.15,392.22c3.25-1.69-2.07-9.28-7.38-9.28M372.14,404.87c7.52-3.07,14.73-6.84,21.55-11.25M414.51,390.81c4.01,1.27,9.89,6.19,7.82,7.88M452.45,285.64c4.73,7.88,13.58,12.94,25.39,7.88.83,2.37,3.64,4.81,7.13,6.75M517.7,283.67c5.91,4.5-4.43,21.09-19.78,20.53"/><path class="cls-6" d="M600.37,385.19c2.05,4.68,9.74,4.22,12.7,0,3.37-4.82,9.45-19.69,5.9-49.49-3.54-29.81-33.66-33.74-68.5-40.49-34.84-6.75-43.7-17.43-50.78-37.12"/><path class="cls-6" d="M606.27,369.72c2.95,4.78,11.22,3.65,12.4-1.13M607.16,353.69c4.43,2.53,12.99,1.69,12.7-3.94M604.8,335.97c3.84,0,14.17.56,13.58-3.94M595.05,324.45c3.25-2.25,12.4-11.81,7.38-14.62M578.52,322.76c5.61-3.1,11.81-19.12,5.02-20.53M551.65,319.66c8.86-3.38,17.12-20.81,11.22-21.93M523.02,315.73c14.47-3.65,18.9-22.21,13.28-23.9M542.79,398.96c15.07,1.15,23.33,8.72,29.23,11.81M539.25,246.27c13.73-1.26,27.22,18.73,45.93,33.68M690.62,157.69c2.58-8.71,4.75-16.9,5.7-21.65M551.33,415.79c3.52-.56,7.09-.82,10.66-.79M685.1,129.28c-1.99,5.38-6.28,16.34-10.56,26.87M313.72,221.9c-26.04,8.55-53.01,24.97-70.3,55.3,9.45,2.25,27.75,0,36.02-2.81.59,7.31.59,16.87.59,23.06,8.27-6.19,18.31-15.19,25.98-17.43-.59,7.31-.59,20.24-.59,25.31,11.22-11.25,32.48-12.37,38.38,4.5,4.72-24.74,43.7-25.87,53.14-4.5,10.63-19.68,37.79-27,55.51-19.68,7.67-20.81,41.33-32.06,63.18-27-7.24-9.54-5.95-20.08-.01-29.14"/><path class="cls-5" d="M230.23,85.39l11.58,2.04s-8.15,10.4-11.58-2.04Z"/></svg>
